<svg width="84" height="75" viewBox="0 0 84 75" fill="none" xmlns="http://www.w3.org/2000/svg">
<path d="M41.9178 30.1303C45.9341 30.1303 49.2096 33.4057 49.2096 37.5C49.2096 41.3993 45.9341 44.7138 41.9178 44.7138C37.9015 44.7138 34.6261 41.3993 34.6261 37.5C34.6261 33.4057 37.9015 30.1303 41.9178 30.1303ZM23.8639 68.6947C26.3205 70.1764 31.7016 67.9148 37.9015 62.0658C35.8739 59.7652 33.8852 57.2696 32.0135 54.6571C28.8713 54.3563 25.7473 53.8878 22.6551 53.2533C20.6665 61.5979 21.4073 67.3299 23.8639 68.6947ZM26.6324 46.3125L25.5016 44.3238C25.0727 45.4546 24.6438 46.5854 24.3708 47.6773C25.4236 47.9112 26.5934 48.1062 27.8022 48.3012L26.6324 46.3125ZM52.1341 43.349L55.2925 37.5L52.1341 31.651C50.9643 29.5844 49.7165 27.7517 48.5857 25.919C46.48 25.802 44.2574 25.802 41.9178 25.802C39.5782 25.802 37.3556 25.802 35.25 25.919C34.1192 27.7517 32.8714 29.5844 31.7016 31.651L28.5431 37.5L31.7016 43.349C32.8714 45.4156 34.1192 47.2483 35.25 49.081C37.3556 49.198 39.5782 49.198 41.9178 49.198C44.2574 49.198 46.48 49.198 48.5857 49.081C49.7165 47.2483 50.9643 45.4156 52.1341 43.349ZM41.9178 17.1455C41.1769 18.0033 40.3971 18.9002 39.6172 19.953H44.2184C43.4386 18.9002 42.6587 18.0033 41.9178 17.1455ZM41.9178 57.8545C42.6587 56.9967 43.4386 56.0998 44.2184 55.047H39.6172C40.3971 56.0998 41.1769 56.9967 41.9178 57.8545ZM59.9327 6.30535C57.5151 4.8236 52.1341 7.08521 45.9341 12.9342C47.9618 15.2348 49.9504 17.7304 51.8221 20.3429C55.0196 20.6549 58.178 21.1228 61.1805 21.7467C63.1692 13.4021 62.4283 7.67011 59.9327 6.30535ZM57.2032 28.6875L58.334 30.6762C58.7629 29.5454 59.1919 28.4146 59.4648 27.3227C58.412 27.0888 57.2422 26.8938 56.0334 26.6989L57.2032 28.6875ZM62.8572 1.19722C68.5892 4.47266 69.2131 13.0902 66.7955 23.1505C76.6999 26.075 83.8356 30.9101 83.8356 37.5C83.8356 44.0899 76.6999 48.925 66.7955 51.8495C69.2131 61.9098 68.5892 70.5273 62.8572 73.8028C57.1642 77.0782 49.4045 73.3349 41.9178 66.1991C34.4311 73.3349 26.6714 77.0782 20.9394 73.8028C15.2464 70.5273 14.6225 61.9098 17.0401 51.8495C7.13578 48.925 0 44.0899 0 37.5C0 30.9101 7.13578 26.075 17.0401 23.1505C14.6225 13.0902 15.2464 4.47266 20.9394 1.19722C26.6714 -2.07822 34.4311 1.66514 41.9178 8.80092C49.4045 1.66514 57.1642 -2.07822 62.8572 1.19722ZM61.7264 37.5C63.0522 40.4245 64.222 43.349 65.1968 46.3125C73.3854 43.8559 77.9866 40.3465 77.9866 37.5C77.9866 34.6535 73.3854 31.1441 65.1968 28.6875C64.222 31.651 63.0522 34.5755 61.7264 37.5ZM22.1092 37.5C20.7834 34.5755 19.6136 31.651 18.6388 28.6875C10.4502 31.1441 5.849 34.6535 5.849 37.5C5.849 40.3465 10.4502 43.8559 18.6388 46.3125C19.6136 43.349 20.7834 40.4245 22.1092 37.5ZM57.2032 46.3125L56.0334 48.3012C57.2422 48.1062 58.412 47.9112 59.4648 47.6773C59.1919 46.5854 58.7629 45.4546 58.334 44.3238L57.2032 46.3125ZM45.9341 62.0658C52.1341 67.9148 57.5151 70.1764 59.9327 68.6947C62.4283 67.3299 63.1692 61.5979 61.1805 53.2533C58.178 53.8772 55.0196 54.3451 51.8221 54.6571C49.9504 57.2696 47.9618 59.7652 45.9341 62.0658ZM26.6324 28.6875L27.8022 26.6989C26.5934 26.8938 25.4236 27.0888 24.3708 27.3227C24.6438 28.4146 25.0727 29.5454 25.5016 30.6762L26.6324 28.6875ZM37.9015 12.9342C31.7016 7.08521 26.3205 4.8236 23.8639 6.30535C21.4073 7.67011 20.6665 13.4021 22.6551 21.7467C25.7473 21.1122 28.8713 20.6437 32.0135 20.3429C33.8852 17.7304 35.8739 15.2348 37.9015 12.9342Z" fill="#4FA1FF"/>
</svg>
