<svg width="94" height="75" viewBox="0 0 94 75" fill="none" xmlns="http://www.w3.org/2000/svg">
<path d="M46.875 37.5L11.9062 23.5312L14.0625 75H4.6875L6.9375 21.5156L0 18.75L46.875 0L93.75 18.75L46.875 37.5ZM46.875 14.0625C44.2969 14.0625 42.1875 15.0938 42.1875 16.4062C42.1875 17.7188 44.2969 18.75 46.875 18.75C49.4531 18.75 51.5625 17.7188 51.5625 16.4062C51.5625 15.0938 49.4531 14.0625 46.875 14.0625ZM46.875 42.1875L72.9844 31.7344C76.3125 36.1406 78.6094 41.4375 79.3594 47.2031C77.9531 47.0156 76.5 46.875 75 46.875C63.0469 46.875 52.5938 53.2969 46.875 62.8594C43.9723 57.9879 39.8542 53.9537 34.9241 51.1517C29.994 48.3498 24.4207 46.8761 18.75 46.875C17.25 46.875 15.7969 47.0156 14.3906 47.2031C15.1406 41.4375 17.4375 36.1406 20.7656 31.7344L46.875 42.1875Z" fill="#4FA1FF"/>
</svg>
