<svg width="57" height="75" viewBox="0 0 57 75" fill="none" xmlns="http://www.w3.org/2000/svg">
<path d="M21.958 51.1424L21.9287 51.1131L17.124 46.8805L21.9287 42.6479C22.4561 42.1793 22.5146 41.3591 22.0459 40.8319L22.0166 40.8026L19.4678 38.0785C18.9697 37.5513 18.1494 37.5366 17.6514 38.0199L9.19922 45.9432C8.65723 46.4558 8.65723 47.3199 9.19922 47.8178L17.6514 55.7411C17.8857 55.9608 18.208 56.0926 18.5303 56.0926C18.8818 56.0926 19.2334 55.9461 19.4678 55.6825L22.0166 52.9584C22.5 52.4458 22.4707 51.6257 21.958 51.1424ZM54.1846 14.3527L41.8945 2.06503C40.5762 0.746925 38.7891 0 36.9287 0H7.03125C3.14941 0.0146456 0 3.16344 0 7.04452V67.9701C0 71.8512 3.14941 75 7.03125 75H49.2188C53.1006 75 56.25 71.8512 56.25 67.9701V19.3322C56.25 17.4722 55.5029 15.6708 54.1846 14.3527ZM37.5 7.6157L48.6475 18.761H37.5V7.6157ZM49.2188 67.9701H7.03125V7.04452H30.4688V22.2759C30.4688 24.2238 32.0361 25.7909 33.9844 25.7909H49.2188V67.9701ZM30.7031 31.3562C30.0146 31.1511 29.3115 31.5466 29.1064 32.2349L21.0938 59.7833C20.8887 60.4716 21.2842 61.1892 21.9727 61.3796L25.5469 62.4195C26.2354 62.6245 26.9531 62.2144 27.1436 61.5407L35.1562 33.9777C35.3613 33.2894 34.9658 32.5718 34.2773 32.3814L30.7031 31.3562ZM34.292 42.6186L34.3213 42.6479L39.126 46.8805L34.3213 51.1131C33.7939 51.5817 33.7354 52.4019 34.2041 52.9291L34.2334 52.9584L36.7822 55.6825C37.2656 56.1951 38.0859 56.2244 38.5986 55.7411L47.0508 47.8178C47.5928 47.3052 47.5928 46.4411 47.0508 45.9432L38.5986 38.0199C38.0859 37.5366 37.2656 37.5513 36.7822 38.0785L34.2334 40.8026C33.75 41.3152 33.7793 42.1353 34.292 42.6186Z" fill="#4FA1FF"/>
</svg>
